<svg width="24" height="24" viewBox="0 0 24 24" version="1.1" xmlns="http://www.w3.org/2000/svg" xmlns:xlink="http://www.w3.org/1999/xlink">
<title>iconmonstr-instagram-14</title>
<desc>Created using Figma</desc>
<g id="Canvas" transform="translate(-464 -147)">
<g id="iconmonstr-instagram-14">
<g id="Vector">
<use xlink:href="#path0_fill" transform="translate(464 147)" fill="#000000"/>
</g>
</g>
</g>
<defs>
<path id="path0_fill" d="M 14.829 6.302C 14.091 6.268 13.869 6.262 12 6.262C 10.131 6.262 9.91 6.269 9.172 6.302C 7.273 6.389 6.389 7.288 6.302 9.172C 6.269 9.91 6.261 10.131 6.261 12C 6.261 13.869 6.269 14.09 6.302 14.829C 6.389 16.708 7.269 17.612 9.172 17.699C 9.909 17.732 10.131 17.74 12 17.74C 13.87 17.74 14.091 17.733 14.829 17.699C 16.728 17.613 17.611 16.711 17.699 14.829C 17.732 14.091 17.739 13.869 17.739 12C 17.739 10.131 17.732 9.91 17.699 9.172C 17.611 7.289 16.726 6.389 14.829 6.302ZM 12 15.595C 10.015 15.595 8.405 13.986 8.405 12C 8.405 10.015 10.015 8.406 12 8.406C 13.985 8.406 15.595 10.015 15.595 12C 15.595 13.985 13.985 15.595 12 15.595ZM 15.737 9.104C 15.273 9.104 14.897 8.728 14.897 8.264C 14.897 7.8 15.273 7.424 15.737 7.424C 16.201 7.424 16.577 7.8 16.577 8.264C 16.577 8.727 16.201 9.104 15.737 9.104ZM 14.333 12C 14.333 13.289 13.288 14.333 12 14.333C 10.712 14.333 9.667 13.289 9.667 12C 9.667 10.711 10.712 9.667 12 9.667C 13.288 9.667 14.333 10.711 14.333 12ZM 12 0C 5.373 0 0 5.373 0 12C 0 18.627 5.373 24 12 24C 18.627 24 24 18.627 24 12C 24 5.373 18.627 0 12 0ZM 18.958 14.886C 18.843 17.431 17.426 18.841 14.887 18.958C 14.14 18.992 13.901 19 12 19C 10.099 19 9.861 18.992 9.114 18.958C 6.57 18.841 5.159 17.429 5.042 14.886C 5.008 14.14 5 13.901 5 12C 5 10.099 5.008 9.861 5.042 9.114C 5.159 6.57 6.571 5.159 9.114 5.043C 9.861 5.008 10.099 5 12 5C 13.901 5 14.14 5.008 14.887 5.043C 17.432 5.16 18.844 6.575 18.958 9.114C 18.992 9.861 19 10.099 19 12C 19 13.901 18.992 14.14 18.958 14.886Z"/>
</defs>
</svg>
