<svg width="24" height="24" viewBox="0 0 24 24" version="1.1" xmlns="http://www.w3.org/2000/svg" xmlns:xlink="http://www.w3.org/1999/xlink">
<title>iconmonstr-loading-9</title>
<desc>Created using Figma</desc>
<g id="Canvas" transform="translate(-2740 295)">
<g id="iconmonstr-loading-9">
<g id="Vector">
<use xlink:href="#path0_fill" transform="translate(2740 -295)"/>
</g>
</g>
</g>
<defs>
<path id="path0_fill" d="M 14 22C 14 23.104 13.104 24 12 24C 10.896 24 10 23.104 10 22C 10 20.896 10.896 20 12 20C 13.104 20 14 20.896 14 22ZM 12 0C 10.896 0 10 0.896 10 2C 10 3.104 10.896 4 12 4C 13.104 4 14 3.104 14 2C 14 0.896 13.104 0 12 0ZM 22 10C 23.104 10 24 10.896 24 12C 24 13.104 23.104 14 21.999 14C 20.896 14 20 13.105 20 12C 20 10.895 20.896 10 22 10ZM 0 12C 0 13.105 0.896 14 2 14C 3.104 14 4 13.105 4 12C 4 10.896 3.104 10 2 10C 0.896 10 0 10.896 0 12ZM 19 3C 20.104 3 21 3.896 21 5C 21 6.104 20.104 7 18.999 7C 17.896 7 17 6.105 17 5C 17 3.895 17.896 3 19 3ZM 19 17C 20.104 17 21 17.896 21 19C 21 20.104 20.104 21 18.999 21C 17.896 21 17 20.105 17 19C 17 17.895 17.896 17 19 17ZM 5 3C 6.104 3 7 3.896 7 5C 7 6.104 6.104 7 4.999 7C 3.896 7 3 6.105 3 5C 3 3.895 3.896 3 5 3ZM 5 17C 6.104 17 7 17.896 7 19C 7 20.104 6.104 21 4.999 21C 3.896 21 3 20.105 3 19C 3 17.895 3.896 17 5 17Z"/>
</defs>
</svg>
