<svg width="24" height="24" viewBox="0 0 24 24" version="1.1" xmlns="http://www.w3.org/2000/svg" xmlns:xlink="http://www.w3.org/1999/xlink">
<title>iconmonstr-vk-4</title>
<desc>Created using Figma</desc>
<g id="Canvas" transform="translate(-464 -103)">
<g id="iconmonstr-vk-4">
<g id="Vector">
<use xlink:href="#path0_fill" transform="translate(464 103)" fill="#000000"/>
</g>
</g>
</g>
<defs>
<path id="path0_fill" d="M 12 0C 5.373 0 0 5.373 0 12C 0 18.627 5.373 24 12 24C 18.627 24 24 18.627 24 12C 24 5.373 18.627 0 12 0ZM 18.344 16.163L 16.477 16.163C 15.422 16.163 15.245 15.562 14.375 14.694C 13.59 13.909 13.155 14.511 13.173 15.629C 13.179 15.926 13.032 16.163 12.678 16.163C 11.573 16.163 9.984 16.319 8.374 14.583C 6.727 12.804 5 9.235 5 8.884C 5 8.676 5.172 8.583 5.459 8.583L 7.357 8.583C 7.86 8.583 7.902 8.832 8.043 9.151C 8.627 10.482 10.024 13.153 10.397 11.662C 10.611 10.806 10.698 8.823 9.782 8.652C 9.262 8.556 10.178 8 11.504 8C 11.834 8 12.192 8.035 12.558 8.12C 13.231 8.276 13.234 8.578 13.224 9.018C 13.19 10.684 12.989 11.804 13.428 12.087C 13.847 12.358 14.949 10.585 15.532 9.216C 15.691 8.838 15.723 8.584 16.175 8.584L 18.497 8.584C 19.713 8.584 18.338 10.332 17.287 11.696C 16.44 12.795 16.485 12.816 17.47 13.73C 18.171 14.381 19 15.27 19 15.773C 19 16.011 18.814 16.163 18.344 16.163Z"/>
</defs>
</svg>
