<svg width="20" height="20" viewBox="0 0 20 20" version="1.1" xmlns="http://www.w3.org/2000/svg" xmlns:xlink="http://www.w3.org/1999/xlink">
<title>ic_public_black_24px</title>
<desc>Created using Figma</desc>
<g id="Canvas" transform="translate(-466 -61)">
<g id="ic_public_black_24px">
<g id="Vector">
<use xlink:href="#path0_fill" transform="translate(466 61)" fill="#000000"/>
</g>
</g>
</g>
<defs>
<path id="path0_fill" d="M 10 0C 4.48 0 0 4.48 0 10C 0 15.52 4.48 20 10 20C 15.52 20 20 15.52 20 10C 20 4.48 15.52 0 10 0ZM 9 17.93C 5.05 17.44 2 14.08 2 10C 2 9.38 2.08 8.79 2.21 8.21L 7 13L 7 14C 7 15.1 7.9 16 9 16L 9 17.93ZM 15.9 15.39C 15.64 14.58 14.9 14 14 14L 13 14L 13 11C 13 10.45 12.55 10 12 10L 6 10L 6 8L 8 8C 8.55 8 9 7.55 9 7L 9 5L 11 5C 12.1 5 13 4.1 13 3L 13 2.59C 15.93 3.78 18 6.65 18 10C 18 12.08 17.2 13.97 15.9 15.39Z"/>
</defs>
</svg>
